# xmcd
#
# Track frame offsets: 
#        180
#        16321
#        30276
#        45484
#        60630
#        73360
#        86664
#        98254
#        112240
#        124572
#        137788
#        150998
#        164249
#        178560
#        192080
#        207815
#        223517
#        237260
#        249463
#        261517
#        274447
#        288210
#        303849
#
# Disc length: 4264 seconds
#
# Revision: 3
# Processed by: cddbd v1.5.2PL0 Copyright (c) Steve Scherf et al.
# Submitted via: ExactAudioCopy v0.95b4
#
DISCID=4710a617
DTITLE=Glenn Miller - Jazz Masters [CD 3)
DYEAR=1900
DGENRE=Jazz
TTITLE0=In the Mood
TTITLE1=Careless
TTITLE2=Moonlight Serenade
TTITLE3=Ciribiribin
TTITLE4=Hear my Song, Violetta
TTITLE5=Chapel in the Valley
TTITLE6=Fools Rush In (Where Angels Fear to Tread)
TTITLE7=Fifth Avenue
TTITLE8=Helpless
TTITLE9=Bugle Call Rag
TTITLE10=Five O'Clock Whistle
TTITLE11=Happy in Love
TTITLE12=Fooled
TTITLE13=Dreamsville, Ohio
TTITLE14=Boulder Buff
TTITLE15=Chattanooga Choo Choo
TTITLE16=Delilah
TTITLE17=Chip of the Old Block
TTITLE18=Caribbean Clipper
TTITLE19=Dearly Beloved
TTITLE20=Rhapsody in Blue
TTITLE21=When the Roses Bloom Again
TTITLE22=St. Louis Blues March
EXTD=
EXTT0=
EXTT1=
EXTT2=
EXTT3=
EXTT4=
EXTT5=
EXTT6=
EXTT7=
EXTT8=
EXTT9=
EXTT10=
EXTT11=
EXTT12=
EXTT13=
EXTT14=
EXTT15=
EXTT16=
EXTT17=
EXTT18=
EXTT19=
EXTT20=
EXTT21=
EXTT22=
PLAYORDER=
